<?xml version="1.0" encoding="iso-8859-1"?>
<!-- Uploaded to: SVG Repo, www.svgrepo.com, Generator: SVG Repo Mixer Tools -->
<svg fill="#000000" height="800px" width="800px" version="1.1" id="Capa_1" xmlns="http://www.w3.org/2000/svg" xmlns:xlink="http://www.w3.org/1999/xlink" 
	 viewBox="0 0 312.512 312.512" xml:space="preserve">
<g>
	<g id="Double_Arrow_Drop_Right">
		<path d="M140.675,147.638L140.675,147.638L20.733,27.443c-7.627-7.94-21.029-1.949-20.728,8.83v239.92
			c-0.289,10.731,13.017,16.554,20.632,8.927l120.026-120.291C145.415,160.077,145.415,152.378,140.675,147.638L140.675,147.638z
			 M24.126,247.249V65.206l90.829,91.021L24.126,247.249z"/>
		<path d="M308.967,147.758L308.967,147.758L308.967,147.758L189.025,27.563c-7.627-7.94-21.029-1.949-20.728,8.83v239.92
			c-0.289,10.731,13.017,16.554,20.632,8.926l120.026-120.291C313.695,160.197,313.695,152.498,308.967,147.758z M192.418,247.369
			V65.326l90.829,91.021L192.418,247.369z"/>
	</g>
	<g>
	</g>
	<g>
	</g>
	<g>
	</g>
	<g>
	</g>
	<g>
	</g>
	<g>
	</g>
</g>
</svg>